<?xml version="1.0" encoding="UTF-8"?>
<!-- Generator: Adobe Illustrator 21.0.0, SVG Export Plug-In . SVG Version: 6.00 Build 0)  -->
<svg version="1.1" id="Layer_1" xmlns="http://www.w3.org/2000/svg" xmlns:xlink="http://www.w3.org/1999/xlink" x="0px" y="0px" viewBox="0 0 400 144" style="enable-background:new 0 0 400 144;" xml:space="preserve">
<style type="text/css">
	.st0{fill:#FFFFFF;}
	.st1{fill:#ABC737;}
</style>
<path class="st0" d="M39.5,41.2c0.7,1.7,1.1,3.8,1.1,6.1c0,2.4-0.5,4.6-1.4,6.6c-0.9,2-2.3,3.8-4,5.2c-1.7,1.5-3.8,2.6-6.2,3.5  c-2.4,0.8-5.1,1.3-8.1,1.3c-4.5,0-8.5-0.9-12-2.6c-3.5-1.7-6.4-3.9-8.9-6.7l2.8-3c2.2,2.6,4.9,4.6,8,6.1c3.1,1.5,6.4,2.2,10,2.2  c4.7,0,8.5-1.1,11.2-3.4c2.7-2.3,4.1-5.2,4.1-8.9c0-1.9-0.3-3.6-0.9-4.9c-0.6-1.3-1.4-2.4-2.4-3.4c-1-1-2.2-1.8-3.5-2.5  c-1.3-0.7-2.8-1.4-4.3-2.1l-9.3-4.2c-1.4-0.6-2.8-1.2-4.3-2.1c-1.5-0.8-2.8-1.8-4-3c-1.2-1.2-2.2-2.6-3-4.3  c-0.8-1.6-1.2-3.6-1.2-5.9c0-2.2,0.5-4.3,1.4-6.1c0.9-1.8,2.1-3.4,3.7-4.8c1.6-1.3,3.5-2.4,5.7-3.1C16.3,0.4,18.7,0,21.2,0  c3.7,0,7.1,0.7,9.9,2.2c2.9,1.5,5.3,3.2,7.1,5.2l-2.4,2.9c-1.8-1.9-3.9-3.5-6.4-4.6c-2.4-1.2-5.2-1.7-8.3-1.7c-4.1,0-7.4,1-9.9,3  c-2.5,2-3.7,4.7-3.7,8c0,1.8,0.3,3.3,1,4.6c0.7,1.2,1.6,2.3,2.6,3.2c1.1,0.9,2.2,1.7,3.5,2.3c1.2,0.7,2.4,1.2,3.5,1.7l9.3,4.1  c1.7,0.7,3.4,1.6,5,2.5c1.6,0.9,2.9,2,4.1,3.3C37.8,38,38.8,39.4,39.5,41.2z M53.3,4.9h19.6v57.8h4.3V4.9h19.6V1.1H53.3V4.9z   M150.9,38.6c0,4.1-0.5,7.5-1.4,10.2c-0.9,2.7-2.2,4.9-3.7,6.5c-1.5,1.7-3.3,2.8-5.3,3.5c-2,0.7-4.2,1-6.4,1c-2.2,0-4.3-0.3-6.2-1  c-2-0.7-3.7-1.9-5.2-3.5c-1.5-1.6-2.7-3.8-3.6-6.5c-0.9-2.7-1.4-6.1-1.4-10.2V1.1h-4.3V39c0,4.8,0.6,8.8,1.7,12  c1.2,3.2,2.7,5.7,4.6,7.6c1.9,1.9,4.1,3.2,6.6,4c2.5,0.8,5,1.2,7.7,1.2c2.7,0,5.3-0.4,7.8-1.2c2.5-0.8,4.7-2.1,6.6-4  c1.9-1.9,3.5-4.4,4.7-7.6c1.2-3.2,1.8-7.2,1.8-12V1.1h-4V38.6z M219.7,19.1c1.1,3.7,1.7,7.9,1.7,12.6s-0.6,8.9-1.7,12.8  c-1.1,3.8-2.8,7.1-5.1,9.8c-2.3,2.7-5.2,4.8-8.7,6.3c-3.5,1.5-7.6,2.2-12.3,2.2h-14.4V1.1h14.3c4.7,0,8.9,0.7,12.4,2.1  c3.5,1.4,6.4,3.5,8.7,6.2C216.8,12.1,218.6,15.3,219.7,19.1z M216.9,31.7c0-4-0.5-7.6-1.4-10.9c-0.9-3.3-2.4-6.1-4.3-8.5  c-1.9-2.4-4.4-4.2-7.4-5.5c-3-1.3-6.6-2-10.8-2h-9.5V59h9.5c4.2,0,7.8-0.7,10.8-2c3-1.3,5.5-3.2,7.4-5.7c1.9-2.4,3.4-5.3,4.3-8.6  C216.4,39.4,216.9,35.7,216.9,31.7z M246.8,31.9h24.7v-3.7h-24.7V4.9h29.4V1.1h-33.7v61.6h34.7v-3.7h-30.4V31.9z M333.7,38.9  c0,3,0.1,6,0.2,9c0.1,3,0.2,6,0.4,9h-0.4L327,44.6L301,1.1h-4.5v61.6h4.1V24.5c0-3-0.1-5.9-0.2-8.7c-0.1-2.8-0.2-5.7-0.4-8.7h0.4  l6.9,12.2l26,43.4h4.5V1.1h-4.1V38.9z M356.5,1.1v3.7h19.6v57.8h4.3V4.9H400V1.1H356.5z"/>
<path class="st1" d="M13.9,133.5h30.7v9.3h-43V80.6h42V90H13.9v15.9h25v9.3h-25V133.5z M106.8,107.6c0,3.5,0.2,7.1,0.6,10.8  c0.4,3.7,0.7,7.2,1,10.4h-0.4l-7.1-13.2l-21.7-35H66.4v62.2h11.8v-27.2c0-3.5-0.2-7-0.6-10.6c-0.4-3.6-0.7-7.1-1-10.4h0.4l7.1,13.2  l21.7,35h12.7V80.6h-11.8V107.6z M156.8,115.2h25v-9.3h-25V90h29.6v-9.3h-42v62.2h43v-9.3h-30.7V115.2z M244.6,116.9l16.6,26h-13.8  l-15-24.3h-10.6v24.3h-12.4V80.6h23.5c3.6,0,7,0.3,10.1,1c3.1,0.6,5.8,1.7,8.1,3.1c2.3,1.4,4.1,3.3,5.4,5.7c1.3,2.3,2,5.3,2,8.7  c0,4.8-1.3,8.6-3.8,11.5C252.1,113.5,248.8,115.6,244.6,116.9z M246.3,99.1c0-3.6-1.3-6.1-3.8-7.5c-2.5-1.4-6.2-2.1-10.9-2.1h-9.9  v20.3h9.9c4.8,0,8.4-0.9,10.9-2.7C245,105.3,246.3,102.6,246.3,99.1z M308.3,118.2h13.2v13.4c-1.1,0.9-2.6,1.6-4.4,2  c-1.8,0.5-3.7,0.7-5.6,0.7c-7,0-12.3-2-15.9-6c-3.6-4-5.4-9.6-5.4-16.7c0-3.5,0.5-6.6,1.5-9.4c1-2.8,2.4-5.1,4.2-7.1  c1.8-1.9,4-3.4,6.5-4.5c2.5-1,5.3-1.6,8.5-1.6c3.3,0,5.9,0.5,8,1.4c2.1,1,4,2.2,5.8,3.7l6.8-6.8c-1.1-1-2.3-2-3.7-2.9  c-1.4-1-3-1.8-4.7-2.5c-1.7-0.7-3.6-1.3-5.6-1.8c-2.1-0.4-4.3-0.7-6.7-0.7c-4.7,0-9.1,0.7-13.1,2.2c-4,1.5-7.6,3.6-10.5,6.4  c-3,2.8-5.3,6.2-7,10.2c-1.7,4-2.6,8.6-2.6,13.6c0,5.1,0.8,9.7,2.4,13.7c1.6,4,3.9,7.4,6.8,10.1c2.9,2.7,6.4,4.8,10.3,6.2  c4,1.4,8.3,2.1,12.9,2.1c4.8,0,9.2-0.7,13.1-2.1c3.9-1.4,7.1-3.2,9.5-5.3v-27.4h-24.3V118.2z M387.1,80.6l-7.6,15.9  c-1,2.3-2,4.6-3.1,6.8c-1.1,2.2-2.2,4.5-3.3,6.9h-0.4c-1.1-2.4-2.2-4.7-3.2-6.9c-1-2.2-2-4.5-3-6.8L359,80.6h-13.2l20.9,39.1v23.1  H379v-23.1l21-39.1H387.1z"/>
</svg>